<svg xmlns="http://www.w3.org/2000/svg" viewBox="0 0 24 24"><path d="M22.807,14.223,12.788,5.97a24.192,24.192,0,0,0,1.928-1.9,1.815,1.815,0,0,0,.314-1.552,2.041,2.041,0,0,0-1.147-1.362,1.8,1.8,0,0,0-1.883.3,1.805,1.805,0,0,0-1.883-.3A2.041,2.041,0,0,0,8.97,2.518,1.815,1.815,0,0,0,9.284,4.07a24.192,24.192,0,0,0,1.928,1.9L1.193,14.223a.516.516,0,0,0,.656.8l1.905-1.57V22.48A.516.516,0,0,0,4.27,23H9.279a.516.516,0,0,0,.515-.515V18.115a2.206,2.206,0,0,1,4.412,0V22.48a.516.516,0,0,0,.515.515H19.73a.516.516,0,0,0,.516-.515V13.449l1.905,1.57a.516.516,0,0,0,.656-.8ZM10.1,3.44a.788.788,0,0,1-.13-.676,1.013,1.013,0,0,1,.576-.671c.523-.24.955.352,1.055.4a.517.517,0,0,0,.794,0c.006-.006.543-.635,1.057-.4a1.013,1.013,0,0,1,.576.671.791.791,0,0,1-.129.676A26.089,26.089,0,0,1,12,5.294,25.837,25.837,0,0,1,10.1,3.44Zm9.114,18.524H15.237V18.115a3.237,3.237,0,0,0-6.474,0v3.849H4.785V12.6L12,6.656,19.215,12.6Z"/></svg>