<svg xmlns="http://www.w3.org/2000/svg" viewBox="0 0 64 59.73"><title>safe deposit box</title><g id="Layer_2" data-name="Layer 2"><g id="safe_deposit_box" data-name="safe deposit box"><path d="M59.37,0H4.63A4.63,4.63,0,0,0,0,4.63V49.79a4.63,4.63,0,0,0,4.63,4.63H7.52v4.32a1,1,0,0,0,1,1H20.77a1,1,0,0,0,1-1V54.42H42.33v4.32a1,1,0,0,0,1,1H55.57a1,1,0,0,0,1-1V54.42h2.8A4.63,4.63,0,0,0,64,49.79V4.63A4.63,4.63,0,0,0,59.37,0ZM19.77,57.73H9.52V54.42H19.77Zm34.8,0H44.33V54.42H54.57ZM62,49.79a2.63,2.63,0,0,1-2.63,2.63H4.63A2.63,2.63,0,0,1,2,49.79V4.63A2.63,2.63,0,0,1,4.63,2H59.37A2.63,2.63,0,0,1,62,4.63Z"/><path d="M29.15,37.84A10.58,10.58,0,1,0,18.57,27.26,10.59,10.59,0,0,0,29.15,37.84Zm-1-19.09v2a1,1,0,0,0,2,0v-2a8.59,8.59,0,0,1,7.51,7.51h-2a1,1,0,0,0,0,2h2a8.59,8.59,0,0,1-7.51,7.52v-2a1,1,0,0,0-2,0v2a8.59,8.59,0,0,1-7.52-7.52h2a1,1,0,0,0,0-2h-2A8.59,8.59,0,0,1,28.15,18.74Z"/><path d="M55.52,8H9.79a1,1,0,0,0-1,1v5.46H7.24a1,1,0,0,0-1,1v9a1,1,0,0,0,1,1H8.79v5.15H7.24a1,1,0,0,0-1,1v9a1,1,0,0,0,1,1H8.79v3.91a1,1,0,0,0,1,1H55.52a1,1,0,0,0,1-1V9A1,1,0,0,0,55.52,8ZM8.24,16.45h3.11v7H8.24Zm0,16.11h3.11v7H8.24ZM54.52,44.43H10.79V41.52h1.56a1,1,0,0,0,1-1v-9a1,1,0,0,0-1-1H10.79V25.41h1.56a1,1,0,0,0,1-1v-9a1,1,0,0,0-1-1H10.79V10H54.52Z"/><path d="M45.56,22.1H49a1,1,0,0,0,0-2H45.56a1,1,0,0,0,0,2Z"/><path d="M45.44,28.28h3.47a1,1,0,0,0,0-2H45.44a1,1,0,0,0,0,2Z"/><path d="M45.44,34.47h3.47a1,1,0,0,0,0-2H45.44a1,1,0,0,0,0,2Z"/></g></g></svg>