<svg xmlns="http://www.w3.org/2000/svg" viewBox="0 0 32 32"><defs><style></style></defs><g id="towels"><path class="cls-1" d="M30,15.5A2.46,2.46,0,0,0,27.59,13H27a2.73,2.73,0,0,0,.05-.5,2.59,2.59,0,0,0-.49-1.5A2.59,2.59,0,0,0,27,9.5,2.46,2.46,0,0,0,24.59,7H17a1,1,0,0,0,0,2h7.59a.51.51,0,0,1,0,1H13a1,1,0,0,0,0,2H24.59a.51.51,0,0,1,0,1H11.89a2,2,0,0,1,0-4H14a1,1,0,0,0,0-2H5.41A3.74,3.74,0,0,0,2,11a3.74,3.74,0,0,0,3.41,4h.06a4.49,4.49,0,0,0,0,4H5.41A3.74,3.74,0,0,0,2,23a3.74,3.74,0,0,0,3.41,4H20a1,1,0,0,0,0-2H11.89a2,2,0,0,1,0-4h12.7a.51.51,0,0,1,0,1H13a1,1,0,0,0,0,2H24.59a.51.51,0,0,1,0,1H23a1,1,0,0,0,0,2h1.59A2.46,2.46,0,0,0,27,24.5a2.59,2.59,0,0,0-.49-1.5A2.59,2.59,0,0,0,27,21.5,2.73,2.73,0,0,0,27,21h.64A2.46,2.46,0,0,0,30,18.5a2.59,2.59,0,0,0-.49-1.5A2.59,2.59,0,0,0,30,15.5ZM4,11c0-1.08.65-2,1.41-2H8.53a4,4,0,0,0,0,4H5.41C4.65,13,4,12.08,4,11ZM8.53,25H5.41C4.65,25,4,24.08,4,23s.65-2,1.41-2H8.53a4,4,0,0,0,0,4Zm3-6H8.41C7.65,19,7,18.08,7,17s.65-2,1.41-2h3.12a4,4,0,0,0,0,4ZM16,18H27.59a.51.51,0,0,1,0,1H25a.7.7,0,0,0-.14,0,2.23,2.23,0,0,0-.27,0h-9.7a2,2,0,0,1,0-4h12.7a.51.51,0,0,1,0,1H16a1,1,0,0,0,0,2Z"/></g></svg>