<svg xmlns="http://www.w3.org/2000/svg" viewBox="0 0 32 32"><defs><style></style></defs><g id="luggage"><path class="cls-1" d="M21.34,7H21V4h1a1,1,0,0,0,0-2H10a1,1,0,0,0,0,2h1V7h-.34A3.66,3.66,0,0,0,7,10.66V23.34a3.66,3.66,0,0,0,2,3.24V28.1A1.9,1.9,0,0,0,10.9,30h1.2A1.9,1.9,0,0,0,14,28.1V27h4v1.1A1.9,1.9,0,0,0,19.9,30h1.2A1.9,1.9,0,0,0,23,28.1V26.58a3.66,3.66,0,0,0,2-3.24V10.66A3.66,3.66,0,0,0,21.34,7ZM12,28H11V27h1Zm9,0H20V27h1Zm2-4.66A1.67,1.67,0,0,1,21.34,25H10.66A1.67,1.67,0,0,1,9,23.34V10.66A1.67,1.67,0,0,1,10.66,9H12a1,1,0,0,0,1-1V4h6V7H16a1,1,0,0,0,0,2h5.34A1.67,1.67,0,0,1,23,10.66Z"/><path class="cls-1" d="M12,11a1,1,0,0,0-1,1V22a1,1,0,0,0,2,0V12A1,1,0,0,0,12,11Z"/><path class="cls-1" d="M16,11a1,1,0,0,0-1,1V22a1,1,0,0,0,2,0V12A1,1,0,0,0,16,11Z"/><path class="cls-1" d="M20,11a1,1,0,0,0-1,1V22a1,1,0,0,0,2,0V12A1,1,0,0,0,20,11Z"/></g></svg>