<svg xmlns="http://www.w3.org/2000/svg" viewBox="0 0 48 48"><defs><style></style></defs><title>Asset 48ldpi</title><g id="Layer_2" data-name="Layer 2"><g id="layer_1-2" data-name="layer 1"><path class="cls-1" d="M27,48H21a1,1,0,0,1-1-.87l-.48-3.64a19.94,19.94,0,0,1-6.16-2.55l-2.9,2.24a1,1,0,0,1-1.32-.09L4.91,38.85a1,1,0,0,1-.09-1.32l2.24-2.9a19.94,19.94,0,0,1-2.55-6.16L.87,28A1,1,0,0,1,0,27V21a1,1,0,0,1,.87-1l3.64-.48a19.94,19.94,0,0,1,2.55-6.16l-2.24-2.9a1,1,0,0,1,.09-1.32L9.15,4.91a1,1,0,0,1,1.32-.09l2.9,2.24a19.94,19.94,0,0,1,6.16-2.55L20,.87A1,1,0,0,1,21,0h6a1,1,0,0,1,1,.87l.48,3.64a19.94,19.94,0,0,1,6.16,2.55l2.9-2.24a1,1,0,0,1,1.32.09l4.24,4.24a1,1,0,0,1,.09,1.32l-2.24,2.9a19.94,19.94,0,0,1,2.55,6.16l3.64.48A1,1,0,0,1,48,21v6a1,1,0,0,1-.87,1l-3.64.48a19.94,19.94,0,0,1-2.55,6.16l2.24,2.9a1,1,0,0,1-.09,1.32l-4.24,4.24a1,1,0,0,1-1.32.09l-2.9-2.24a19.94,19.94,0,0,1-6.16,2.55L28,47.13A1,1,0,0,1,27,48Zm-5.12-2h4.24l.46-3.47a1,1,0,0,1,.8-.86,17.81,17.81,0,0,0,6.73-2.78,1,1,0,0,1,1.17,0l2.78,2.14,3-3-2.14-2.78a1,1,0,0,1,0-1.17,17.81,17.81,0,0,0,2.78-6.73,1,1,0,0,1,.86-.8L46,26.12V21.88l-3.47-.46a1,1,0,0,1-.86-.8,17.81,17.81,0,0,0-2.78-6.73,1,1,0,0,1,0-1.17l2.14-2.78-3-3L35.28,9.08a1,1,0,0,1-1.17,0,17.81,17.81,0,0,0-6.73-2.78,1,1,0,0,1-.8-.86L26.12,2H21.88l-.46,3.47a1,1,0,0,1-.8.86,17.81,17.81,0,0,0-6.73,2.78,1,1,0,0,1-1.17,0L9.94,6.94l-3,3,2.14,2.78a1,1,0,0,1,0,1.17,17.81,17.81,0,0,0-2.78,6.73,1,1,0,0,1-.86.8L2,21.88v4.24l3.47.46a1,1,0,0,1,.86.8,17.81,17.81,0,0,0,2.78,6.73,1,1,0,0,1,0,1.17L6.94,38.06l3,3,2.78-2.14a1,1,0,0,1,1.17,0,17.81,17.81,0,0,0,6.73,2.78,1,1,0,0,1,.8.86ZM27,38.67a1,1,0,0,1-1-1V29.19a1,1,0,0,1,.5-.86,5.17,5.17,0,0,0,1.83-1.83,1,1,0,0,1,.86-.5h8.48a1,1,0,0,1,1,1.21A15,15,0,0,1,27.21,38.65Zm1-8.93v6.63A13.08,13.08,0,0,0,36.37,28H29.74A6.85,6.85,0,0,1,28,29.74Zm-7,8.93-.21,0A15,15,0,0,1,9.35,27.21a1,1,0,0,1,1-1.21h8.48a1,1,0,0,1,.86.5,5.17,5.17,0,0,0,1.83,1.83,1,1,0,0,1,.5.86v8.48a1,1,0,0,1-1,1ZM11.63,28A13.08,13.08,0,0,0,20,36.37V29.74A6.85,6.85,0,0,1,18.26,28Zm26-6H29.19a1,1,0,0,1-.86-.5,5.17,5.17,0,0,0-1.83-1.83,1,1,0,0,1-.5-.86V10.33a1,1,0,0,1,1.21-1A15,15,0,0,1,38.65,20.79a1,1,0,0,1-1,1.21Zm-7.93-2h6.63A13.08,13.08,0,0,0,28,11.63v6.63A6.85,6.85,0,0,1,29.74,20ZM18.81,22H10.33a1,1,0,0,1-1-1.21A15,15,0,0,1,20.79,9.35a1,1,0,0,1,1.21,1v8.48a1,1,0,0,1-.5.86,5.17,5.17,0,0,0-1.83,1.83A1,1,0,0,1,18.81,22Zm-7.18-2h6.63A6.85,6.85,0,0,1,20,18.26V11.63A13.08,13.08,0,0,0,11.63,20Z"/></g></g></svg>