<svg xmlns="http://www.w3.org/2000/svg" viewBox="0 0 48 48"><title>Home repairing</title><g id="Home_repairing" data-name="Home repairing"><path d="M46,46H45V20a3.44,3.44,0,0,0,3-3.45c0-2.37-1.9-3.15-4-4.52V4a1,1,0,0,0-1-1H37a1,1,0,0,0-1,1V6.86L26.73.81a5,5,0,0,0-5.46,0L1.59,13.64A3.52,3.52,0,0,0,3,20.06V46H2a1,1,0,0,0,0,2H46A1,1,0,0,0,46,46ZM38,5h4v5.77L38,8.16ZM2,16.59c0-1.17-.84-.27,20.36-14.1a3,3,0,0,1,3.28,0L45.31,15.32a1.51,1.51,0,0,1-1.65,2.53L24.55,5.39c-.8-.52.38-1-20.21,12.46A1.51,1.51,0,0,1,2,16.59ZM5,46c0-29.15-.19-26.07.43-26.47L24,7.42,42.57,19.53c.61.4.43-2.73.43,26.47Z"/><path d="M36.81,19.47c-.69-.14-.79.16-3.24,2.6l-1.25-.41-.41-1.25c2.42-2.43,2.74-2.55,2.6-3.25-.28-1.3-4.75-2.06-7.54.73a6.45,6.45,0,0,0-1.84,5.37A2.14,2.14,0,0,1,24.47,25c-5.62,5.62-5.92,6.29-7.23,6.13a6.46,6.46,0,0,0-6.81,8.76,1,1,0,0,0,1.64.34l2.33-2.32,1.25.41.41,1.25-2.32,2.33a1,1,0,0,0,.33,1.64,6.45,6.45,0,0,0,8.78-6.67A2.33,2.33,0,0,1,23.5,35c5.63-5.63,5.84-6.27,7.37-6.12a6.46,6.46,0,0,0,6.67-8.78A1,1,0,0,0,36.81,19.47Zm-5.74,7.4a4.33,4.33,0,0,0-3.51,1.22l-5.48,5.48a4.33,4.33,0,0,0-1.22,3.51A4.45,4.45,0,0,1,16.48,42c1.5-1.5,1.92-1.73,1.68-2.46-.81-2.42-.79-2.75-1.41-2.95-3.44-1.14-2.57-1.29-4.76.9a4.46,4.46,0,0,1,5-4.37,4.07,4.07,0,0,0,3.42-1.22l5.48-5.48c2.51-2.51-.08-4.54,2.49-7.12a4.48,4.48,0,0,1,3.1-1.3c-2.2,2.21-2,1.41-.9,4.76.21.63.59.62,3,1.41.74.25,1-.22,2.46-1.68A4.46,4.46,0,0,1,31.07,26.87Z"/></g></svg>