<svg xmlns="http://www.w3.org/2000/svg" viewBox="0 0 32 32"><defs></defs><g id="shop"><path class="cls-1" d="M30,11.1v0a1.48,1.48,0,0,0,0-.21.83.83,0,0,0-.21-.5l-3.46-5.2A2.55,2.55,0,0,0,24.19,4H7.81A2.55,2.55,0,0,0,5.69,5.16l-3.46,5.2a.83.83,0,0,0-.21.5,1.48,1.48,0,0,0,0,.21v.06a.58.58,0,0,0,0,.18,7.63,7.63,0,0,0,2.94,5V27a3,3,0,0,0,3,3H24a3,3,0,0,0,3-3V16.26a7.63,7.63,0,0,0,2.94-5,.58.58,0,0,0,0-.18Zm-3.4,3-.05.06a2.64,2.64,0,0,1-1.54,1,1.07,1.07,0,0,1-.25,0h-.08c-1.22,0-2.41-1.25-3-3.12h6a6.54,6.54,0,0,1-.93,1.85A1.56,1.56,0,0,1,26.59,14.05ZM7.35,6.27A.58.58,0,0,1,7.81,6H24.19a.58.58,0,0,1,.46.27L27.13,10H4.87ZM19,12c-.63,1.87-1.81,3.12-3,3.12S13.6,13.87,13,12ZM4.32,12h6c-.62,1.87-1.81,3.12-3,3.12H7.25a1.07,1.07,0,0,1-.25,0,2.64,2.64,0,0,1-1.54-1l0-.06a1.56,1.56,0,0,1-.16-.2A6.54,6.54,0,0,1,4.32,12ZM12,28V20.44a.44.44,0,0,1,.44-.44h7.12a.44.44,0,0,1,.44.44V28Zm13-1a1,1,0,0,1-1,1H22V20.44A2.45,2.45,0,0,0,19.56,18H12.44A2.45,2.45,0,0,0,10,20.44V28H8a1,1,0,0,1-1-1V17l.25,0h.08a5.09,5.09,0,0,0,4.34-3A5.08,5.08,0,0,0,16,17a5.08,5.08,0,0,0,4.33-3,5.09,5.09,0,0,0,4.34,3h.08L25,17Z"/></g></svg>